<svg xmlns="http://www.w3.org/2000/svg" width="139" height="62" fill="none"><g fill="#fff" clip-path="url(#a)"><path d="M81.54 11.123c.245.246.562.41.922.326 3.126-.733 6.19-1.732 9.025-3.26.34-.183.603-.601.731-.95.147-.399.207-.946.089-1.362-.099-.345-.268-.748-.61-.917a1.01 1.01 0 0 0-.979.025 29.05 29.05 0 0 1-2.799 1.317c-1.813.71-3.686 1.24-5.58 1.684-.822.193-1.257 1.233-1.201 2.006.027.39.114.842.401 1.13Z"/><path d="M131.57 12.05c-.129-.271-.335-.6-.672-.629-.356-.03-.586.158-.834.391-1.246 1.17-2.258 2.56-3.495 3.737a10.52 10.52 0 0 1-1.301.99c.143-.301.289-.6.443-.896a27.477 27.477 0 0 1 1.574-2.648c.224-.322.441-.638.588-1.012.205-.519.216-1.222-.005-1.738-.142-.332-.535-.802-.965-.612-.237.105-.379.2-.569.396-.061.063-.119.13-.178.195a69.93 69.93 0 0 0-1.22 1.402c-.51.604-1.011 1.214-1.511 1.826-.98 1.196-1.96 2.392-3.007 3.53-.291.317-.586.629-.888.936.18-.358.354-.719.524-1.082.672-1.438 1.281-2.904 1.983-4.329a31.946 31.946 0 0 1 .97-1.818c.06-.103.124-.204.182-.309.171-.304.253-.62.336-.96.086-.356.043-.943-.117-1.28-.146-.31-.329-.532-.672-.63-.527-.15-.992.542-1.307.884a847.517 847.517 0 0 1-2.005 2.161c-.987 1.06-1.977 2.117-2.966 3.175-.776.83-1.553 1.66-2.328 2.492.264-.777.523-1.557.778-2.338.229-.702.463-1.402.682-2.107.246-.79.318-1.815-.253-2.496-.377-.45-1.003-.574-1.494-.217-.465.338-.733.922-1.034 1.402l-.644 1.03c-.402.643-.804 1.286-1.208 1.928a115.172 115.172 0 0 1-2.224 3.436c-.717 1.045-1.472 2.093-2.39 2.97-.299.262-.62.498-.971.685a3.094 3.094 0 0 1-.785.215l.008-.04.029-.108c.114-.399.253-.79.404-1.175.075-.194.156-.386.237-.578l.002-.004.148-.327c.706-1.527 1.524-3.003 2.386-4.447.187-.312.375-.624.57-.931.201-.316.275-.727.302-1.09.026-.34.015-.733-.134-1.047-.095-.2-.217-.39-.399-.523-.252-.182-.61-.116-.848.046a153.749 153.749 0 0 0-6.25 4.446v-.005l.014-.144a12.08 12.08 0 0 1 .155-1.065c.016-.082.059-.257.084-.365.07-.25.143-.498.232-.743.03-.08.063-.16.095-.24.041-.092.114-.256.151-.329.057-.11.119-.22.181-.328.313-.398.621-.8.92-1.21.263-.36.436-.735.507-1.182.061-.387.056-.914-.117-1.28-.129-.273-.335-.602-.672-.63-.346-.03-.601.149-.833.39a9.1 9.1 0 0 0-1.166 1.515 40.12 40.12 0 0 1-3.475 3.765c-.146.14-.294.28-.441.418-.045-.631-.198-1.284-.492-1.833-.34-.635-.82-1.156-1.552-1.307-.635-.131-1.254.1-1.819.361-.569.263-1.081.634-1.563 1.031-1.183.974-2.239 2.086-3.23 3.252.13-.249.262-.498.386-.75.27-.545.43-1.213.276-1.822-.106-.423-.299-.837-.727-.999-.677-.256-1.267.432-1.68.878-.502.541-1.013 1.07-1.494 1.63a69.227 69.227 0 0 0-1.806 2.213c-.684.866-1.358 1.74-2.031 2.614.45-.952.857-1.938 1.041-2.97.137-.763.124-1.719-.38-2.36-.37-.472-.91-.586-1.477-.469-.306.063-.594.204-.875.332a8.206 8.206 0 0 0-.816.434c-.452.27-.89.566-1.318.873a1.14 1.14 0 0 0-.232-.379c-.219-.228-.544-.43-.877-.318a21.274 21.274 0 0 0-6.827 3.773c-1.07.886-2.072 1.837-2.968 2.9-.995 1.182-1.93 2.45-2.537 3.88a6.57 6.57 0 0 0-.486 1.893 421.957 421.957 0 0 1-3.092 2.345 270.522 270.522 0 0 0 4.216-6.647c.414-.676.83-1.352 1.21-2.048.203-.37.412-.75.55-1.149.233-.672.28-1.587-.224-2.163a.955.955 0 0 0-.911-.334c-.282.04-.5.244-.703.418-.336.288-.617.652-.898.992-.214.258-.423.518-.631.78a4.692 4.692 0 0 0-.563-1.072c-.247-.353-.6-.683-.99-.87-1.464-.697-3.039.092-4.24.962-1.16.839-2.202 1.83-3.202 2.853a1.555 1.555 0 0 0-.142.12c-.186.18-.38.351-.582.515-.3.214-.616.4-.953.548a3.767 3.767 0 0 1-.843.169 3.778 3.778 0 0 1-.477-.04 9.03 9.03 0 0 0 .005-.369c-.011-1.21-.32-2.559-1.103-3.512a2.13 2.13 0 0 0-1.868-.781c-.385.035-.728.216-1.013.47a.86.86 0 0 0-.431.14 33.844 33.844 0 0 0-5.853 4.983.978.978 0 0 0-.113.11l-.117.136c-.442.48-.87.975-1.285 1.482-1.933 2.21-3.922 4.373-6.09 6.354a41.804 41.804 0 0 1-2.399 2.037 26.028 26.028 0 0 1-3.05 2.031c-.348.195-.61.586-.746.95-.149.398-.207.947-.085 1.362.103.349.281.75.629.92.33.16.675.162 1.002-.021 2.207-1.239 4.209-2.85 6.072-4.555a56.13 56.13 0 0 0 1.524-1.451c.022.093.047.187.076.278.341 1.071 1.069 2.026 2.116 2.49 1.037.459 2.186.488 3.277.203 3.01-.789 5.205-3.074 6.787-5.663-.19.892-.269 1.799-.043 2.703.249.998.865 1.969 1.946 2.168.789.146 1.572-.203 2.257-.552 1.004-.511 1.911-1.226 2.757-1.982-.402.603-.807 1.204-1.211 1.806a268.6 268.6 0 0 0-4.351 3.371c-1.779.477-3.552.971-5.319 1.49a214.404 214.404 0 0 0-5.743 1.769 181.551 181.551 0 0 0-10.892 3.898 146.09 146.09 0 0 0-4.846 2.006 127.423 127.423 0 0 0-4.544 2.083 109.04 109.04 0 0 0-4.188 2.133 89.948 89.948 0 0 0-3.843 2.187c-.6.362-1.195.731-1.785 1.11l.028-.039a874.874 874.874 0 0 0 5.063-7.075c1.264-1.782 2.527-3.564 3.793-5.344l.178-.126a138.879 138.879 0 0 0 4.836-3.639 176.833 176.833 0 0 0 4.957-4.033 198.51 198.51 0 0 0 5.117-4.466 189.01 189.01 0 0 0 5.053-4.732 155.567 155.567 0 0 0 4.767-4.832 111.74 111.74 0 0 0 4.257-4.763 74.41 74.41 0 0 0 3.75-4.812c.489-.69.962-1.391 1.41-2.108.56-.897 1.194-1.85 1.475-2.873.22-.798.386-1.684.115-2.494-.126-.374-.278-.737-.568-1.018-.293-.284-.549-.41-.932-.53-.449-.142-.97-.095-1.426-.005-.566.11-1.118.332-1.638.577-1.303.614-2.479 1.492-3.591 2.397-1.103.898-2.15 1.87-3.167 2.863a146.737 146.737 0 0 0-6.008 6.23 175.108 175.108 0 0 0-5.573 6.442 239.717 239.717 0 0 0-5.462 6.887 347.41 347.41 0 0 0-5.041 6.771 668.658 668.658 0 0 0-3.953 5.504 61.933 61.933 0 0 1-3.977 2.595c-.927.55-1.88 1.078-2.881 1.48a4.324 4.324 0 0 1-1.007.258 1.258 1.258 0 0 1-.09-.01.706.706 0 0 0-.359-.04.777.777 0 0 0-.504.131c-.337.188-.627.59-.748.949-.144.428-.215.92-.084 1.362.096.326.282.793.63.92.206.076.397.16.613.174.238.017.483.006.72-.024.344-.044.68-.149 1.006-.267.666-.241 1.31-.532 1.94-.853l-1.199 1.686a621.123 621.123 0 0 1-5.074 7.031 382.753 382.753 0 0 1-2.617 3.526c-.532.708-1.204 1.423-1.312 2.342-.066.568 0 1.214.405 1.657.263.288.653.42 1.036.346.409-.08.749-.371 1.057-.626a65.72 65.72 0 0 1 1.38-1.112 62.37 62.37 0 0 1 3.66-2.598 79.548 79.548 0 0 1 4.34-2.656 99.894 99.894 0 0 1 4.824-2.574 122.693 122.693 0 0 1 5.326-2.5 147.146 147.146 0 0 1 6.3-2.605 178.02 178.02 0 0 1 7.012-2.53c2.307-.78 4.63-1.514 6.964-2.212a95.453 95.453 0 0 0-3.34 3.104c-1.5 1.468-3 2.968-4.264 4.648-1.428 1.899-2.57 4.02-3.065 6.36-.246 1.161-.251 2.486.28 3.573.247.509.618 1.008 1.137 1.26.38.186.783.304 1.205.297.449-.007.864-.06 1.284-.222a6.962 6.962 0 0 0 1.28-.632c.76-.489 1.457-1.1 2.09-1.744 1.456-1.482 2.57-3.252 3.692-4.988 2.347-3.63 4.757-7.22 7.175-10.803l2.416-3.576a270.466 270.466 0 0 1 7.518-1.789 296.67 296.67 0 0 1 9.08-1.872c2.186-.416 4.376-.807 6.57-1.177-.44 1.174-.785 2.392-.838 3.645-.014.325.015.66.08.978.102.492.434 1.036.996 1.01.556-.026.99-.602 1.138-1.099a82.138 82.138 0 0 1 1.678-5.035c14.575-2.318 29.299-4.643 44.045-5.222.838-.033 1.349-.567 1.311-1.056-.055-.716-.434-1.189-1.367-1.189-14.178.558-28.28 2.11-42.39 3.73a90.37 90.37 0 0 1 3.077-5.194c.117.367.268.722.468 1.054.242.402.556.791.996.985.467.207.93.255 1.434.135 1.012-.241 1.868-.977 2.615-1.659.843-.77 1.59-1.646 2.298-2.54a52.916 52.916 0 0 0 2.089-2.835c.73-.867 1.508-1.69 2.33-2.478.928-.889 1.876-1.755 2.792-2.654-.035.5-.048.998-.042 1.492-1.37 1.097-2.707 2.242-3.946 3.483-.826.828-1.67 1.743-2.203 2.794-.331.652-.537 1.332-.557 2.066-.016.55.113 1.162.46 1.603.484.615 1.242.648 1.954.575.658-.068 1.302-.291 1.904-.557.805-.355 1.581-.778 2.278-1.317.789-.61 1.472-1.322 1.987-2.178a5.398 5.398 0 0 0 .7-3.567c-.058-.38-.123-.757-.182-1.135a118.2 118.2 0 0 1 2.61-1.921l-.07.148c-.428.948-.849 1.914-1.107 2.924-.285 1.116-.518 2.375-.056 3.48.16.384.434.777.82.96.445.212.851.212 1.334.128.727-.126 1.422-.52 1.991-.978.789-.637 1.465-1.4 2.083-2.2.856-1.111 1.631-2.285 2.394-3.462l.268-.418a73.562 73.562 0 0 1-1.372 3.56l-.122.29c-.056.13-.241.554.008-.018-.189.435-.326.842-.32 1.325.005.343.085.845.325 1.119.197.226.475.408.792.305.313-.1.592-.362.74-.655.285-.373.616-.719.927-1.066.696-.777 1.404-1.544 2.113-2.309 1.077-1.163 2.159-2.322 3.241-3.48-.151.295-.307.588-.468.878-.224.398-.484.782-.674 1.197-.373.817-.587 1.711-.411 2.608.11.56.403 1.184.928 1.467.545.294 1.084.194 1.613-.073.438-.222.78-.592 1.131-.928a41.747 41.747 0 0 0 2.793-2.986c.158.605.549 1.17 1.113 1.456.259.131.558.253.854.267.442.021.754-.074 1.127-.31 1.036-.65 1.934-1.509 2.754-2.411.863-.95 1.671-1.948 2.609-2.828.281-.264.45-.823.507-1.182.061-.388.056-.915-.117-1.281ZM28.448 25.757l.461-.585a193.397 193.397 0 0 1 6.479-7.773 151.29 151.29 0 0 1 7.127-7.561c1.328-1.313 2.687-2.612 4.16-3.766.91-.69 1.886-1.342 2.945-1.777.24-.083.485-.152.735-.194-.394.734-.847 1.441-1.303 2.135a51.166 51.166 0 0 1-1.768 2.507c-.317.425-.642.845-.97 1.262a96.573 96.573 0 0 1-4.265 4.982 144.021 144.021 0 0 1-5.045 5.24 183.695 183.695 0 0 1-5.444 5.17 198.855 198.855 0 0 1-8.242 7.116 292.073 292.073 0 0 1 5.13-6.756ZM66.74 24.27a21.434 21.434 0 0 1 3.208-3.415 20.735 20.735 0 0 1 4.618-2.875c.006.074.017.146.031.215a21.199 21.199 0 0 1-.627 1.558 21.145 21.145 0 0 1-1.946 3.282 20.015 20.015 0 0 1-3.012 3.19c-.538.442-1.102.87-1.73 1.17a2.988 2.988 0 0 1-.665.161 2.006 2.006 0 0 1-.4-.064 1.91 1.91 0 0 1-.277-.166 2.409 2.409 0 0 1-.196-.233 3.043 3.043 0 0 1-.11-.234 3.46 3.46 0 0 1-.054-.238 3.46 3.46 0 0 1-.004-.111c.013-.091.028-.182.046-.273a5.61 5.61 0 0 1 .162-.44c.27-.537.603-1.04.956-1.527Zm-21.542 4.364a11.569 11.569 0 0 1-1.755 1.746 8.632 8.632 0 0 1-1.776.994 5.833 5.833 0 0 1-1.503.33 3.606 3.606 0 0 1-.926-.134c-.2-.086-.39-.193-.568-.32a2.843 2.843 0 0 1-.242-.258 2.704 2.704 0 0 1-.103-.192l-.029-.106a3.53 3.53 0 0 1-.005-.122c.01-.076.023-.151.038-.226a5.72 5.72 0 0 1 .215-.562c.465-.883 1.074-1.696 1.693-2.48.12-.151.245-.3.368-.449.306-.35.609-.703.912-1.055a32.318 32.318 0 0 1 4.086-3.8c.15-.114.3-.224.45-.334a5.825 5.825 0 0 0 1.612 2.368c-.229.65-.502 1.287-.8 1.909a17.13 17.13 0 0 1-1.667 2.69Zm8.127.605c-.667.535-1.378 1.03-2.16 1.378-.167.062-.336.11-.513.135a1.414 1.414 0 0 1-.178-.025 1.341 1.341 0 0 1-.08-.046l-.018-.021-.018-.036c-.008-.033-.017-.066-.024-.1a3.76 3.76 0 0 1-.007-.224c.02-.15.05-.3.082-.447.14-.502.318-.99.53-1.466a14.34 14.34 0 0 1 1.25-2.025 30.351 30.351 0 0 1 2.121-2.453c.234-.19.46-.388.677-.597.124-.12.229-.269.316-.429a27.206 27.206 0 0 1 1.893-1.752c.537-.426 1.106-.823 1.73-1.109.238-.087.483-.151.736-.179.113.007.224.023.333.05.08.04.158.085.231.136.06.062.117.128.17.196.038.073.073.147.105.223.033.118.06.237.082.358.007.1.01.199.01.298-.005.04-.009.082-.015.122-1.811 2.272-3.632 4.549-5.7 6.593-.499.493-1.014.97-1.553 1.42ZM42.695 50c-.808 1.234-1.58 2.497-2.418 3.711-.188.272-.38.54-.577.805-.667.868-1.397 1.686-2.234 2.393-.413.322-.85.614-1.325.836-.245.09-.498.156-.758.183a2.025 2.025 0 0 1-.38-.056 1.988 1.988 0 0 1-.182-.095l-.048-.06a2.248 2.248 0 0 1-.061-.128l-.027-.12a4.033 4.033 0 0 1-.005-.236 6.41 6.41 0 0 1 .101-.604c.161-.581.37-1.153.617-1.704.445-.9.98-1.75 1.573-2.561 1.201-1.57 2.63-2.977 4.04-4.356a100.111 100.111 0 0 1 4.536-4.154c.838-.724 1.687-1.435 2.543-2.139l.272-.22a991.315 991.315 0 0 0-3.177 4.733A539.54 539.54 0 0 0 42.695 50Zm20.273-16.383c-2.095.446-4.185.916-6.269 1.41 1.492-1.122 2.986-2.24 4.477-3.362a402.16 402.16 0 0 0 2.708-2.056c.433.663.988 1.156 1.78 1.372.817.223 1.678-.062 2.406-.424.587-.293 1.113-.7 1.622-1.112.558-.451 1.102-.92 1.616-1.422.98-.956 1.843-2.017 2.63-3.136a22.26 22.26 0 0 0 3.152-6.56c.414-.31.834-.615 1.264-.904.267-.18.54-.356.818-.52-.533 1.152-1.128 2.276-1.727 3.396-.715 1.338-1.443 2.67-2.14 4.018a57.6 57.6 0 0 0-1.057 2.134c-.165.355-.282.693-.31 1.09-.024.341-.006.736.153 1.049.103.205.237.395.428.527.27.186.64.122.9-.038.424-.261.803-.604 1.169-.939.38-.349.738-.722 1.086-1.103.872-.955 1.686-1.962 2.489-2.975.556-.702 1.104-1.41 1.65-2.12a140.301 140.301 0 0 0-3.465 7.751 60.21 60.21 0 0 0-.582 1.155c-.332.054-.664.107-.995.162-2.344.39-4.683.804-7.018 1.245-2.267.428-4.529.882-6.785 1.362ZM88.754 22.38c-.24.246-.488.483-.745.711a5.73 5.73 0 0 1-1.055.715 2.15 2.15 0 0 1-.444.12 1.265 1.265 0 0 1-.185-.027 1.224 1.224 0 0 1-.097-.059 1.67 1.67 0 0 1-.124-.154 3.212 3.212 0 0 1-.125-.29 7.204 7.204 0 0 1-.191-.973l-.014-.155c.207-.298.414-.596.624-.89a62.4 62.4 0 0 1 2.158-2.83 36.27 36.27 0 0 1 2.207-2.499c.35-.358.712-.704 1.089-1.035.464-.39.959-.756 1.503-1.023.178-.07.363-.123.552-.149.062.005.124.013.184.026.032.017.062.035.092.054.021.025.042.05.061.075.023.048.043.095.063.144.02.076.036.153.05.23l.003.144a4.31 4.31 0 0 1-.02.123 3.95 3.95 0 0 1-.07.196c-.253.484-.578.943-.871 1.398a62.033 62.033 0 0 1-1.833 2.713c-.867 1.198-1.78 2.373-2.812 3.435Zm10.57-1.64-.022.046.006-.026c.117-.278.067-.129.015-.02Zm-.072.142a3.52 3.52 0 0 1-.14.248c-.18.24-.379.464-.593.673a9.033 9.033 0 0 1-2.051 1.358 7.896 7.896 0 0 1-1.184.435c.278-.306.568-.602.861-.89.218-.215.44-.424.664-.632a54.835 54.835 0 0 1 2.313-1.988c.044.265.089.53.13.796Zm25.42-2.987c-.013.036-.025.072-.04.106-.127.288-.055.117.04-.106Zm10.142-10.53c.094-.095.199-.217.328-.36.13-.143.259-.29.4-.45a17.693 17.693 0 0 0 .681-.831c.082-.1.123-.17.135-.207a.318.318 0 0 0 .018-.095c0-.1-.077-.153-.229-.153-.212 0-.482.058-.805.174l.006.048c0 .026-.018.09-.059.196a11.22 11.22 0 0 1-.141.413 9.81 9.81 0 0 0-.334 1.266Zm-.47 1.695c.27 0 .54-.09.81-.27.27-.18.529-.429.775-.747-.527.185-.908.606-1.233.752l-.082.01c-.217 0-.37-.132-.452-.391a2.076 2.076 0 0 1-.1-.683c0-.498.065-.996.2-1.488a3.84 3.84 0 0 1 .252-.768c.1-.206.188-.328.276-.365l-.006-.043c0-.032.018-.058.059-.084.053-.038.188-.08.393-.128a3.8 3.8 0 0 1 .511-.037c.229 0 .441.027.629.075a.845.845 0 0 1 .469.317.558.558 0 0 1 .089.292c0 .312-.241.751-.723 1.313-.194.217-.417.46-.675.73l.405-.11a1.78 1.78 0 0 1 .435-.054 9.49 9.49 0 0 0 .381-.725c.218-.477.376-.906.464-1.282.03-.153.047-.29.047-.402-.023-.28-.123-.471-.299-.583a.848.848 0 0 0-.423-.095c-.194 0-.405.043-.646.127-.288.1-.575.239-.869.424a4.069 4.069 0 0 0-.752.593c-.235.233-.399.445-.481.635-.241.705-.376 1.308-.394 1.8 0 .192.012.35.041.483.059.286.2.487.435.603.129.07.282.101.464.101Zm.352.604a2.46 2.46 0 0 1-.658-.09 2.103 2.103 0 0 1-.875-.477 1.957 1.957 0 0 1-.563-.921 2.438 2.438 0 0 1-.118-.79c0-.18.012-.375.047-.577a.458.458 0 0 1-.1-.037c-.088-.047-.135-.137-.135-.26 0-.2.112-.465.335-.799.17-.254.388-.508.658-.768.264-.259.564-.487.898-.693.558-.34 1.116-.509 1.674-.509.241 0 .464.016.681.059.623.116 1.063.328 1.316.64a.801.801 0 0 1 .176.525v.1a7.989 7.989 0 0 1-.593 2.325 5.02 5.02 0 0 1-.67 1.154c-.581.747-1.274 1.118-2.073 1.118Zm-5.37 16.707a11.748 11.748 0 0 0-2.538.043 1.31 1.31 0 0 0-.776.4c-.204.22-.339.55-.318.823.019.251.093.54.339.729.214.166.496.281.813.24.461-.061.928-.089 1.397-.087.181.007.361.017.541.033.326.028.606-.038.851-.2.258-.173.459-.466.51-.722.054-.268.054-.573-.128-.82-.143-.196-.372-.411-.691-.439Z"/></g><defs><clipPath id="a"><rect width="139" height="62" fill="#fff" rx="10"/></clipPath></defs></svg>