<svg xmlns="http://www.w3.org/2000/svg" width="116" height="78" fill="none"><path fill="#fff" fill-rule="evenodd" d="M0 52.876v7.718h19.029v-7.12H7.585l11.444-34.663v-7.12H1.597v7.12h9.647L0 52.876Zm25.776 6.853c1.441.931 3.17 1.397 5.19 1.397 1.995 0 3.703-.466 5.122-1.397 1.442-.932 2.54-2.196 3.294-3.793.776-1.596 1.164-3.393 1.164-5.389v-27.18H33.36v27.18c0 .954-.177 1.797-.532 2.529-.355.71-.976 1.064-1.863 1.064-.843 0-1.453-.355-1.83-1.065-.377-.731-.565-1.574-.565-2.528v-27.18h-7.186v27.18c0 1.996.377 3.793 1.131 5.39.754 1.596 1.841 2.86 3.26 3.792Zm-4.392-41.115v-6.922h7.186v6.922h-7.186Zm11.976 0h7.186v-6.922H33.36v6.922Zm11.189-6.922v48.902h6.653V27.793h.4l.266 2.062 4.258 30.739h3.726l4.258-30.739.266-2.062h.399v32.8h6.653v-48.9h-9.115L58.388 37.04l-.333 2.595h-.133l-.333-2.595-3.925-25.35h-9.115Zm30.896 0v48.902H91.88v-7.386h-9.248V39.437h6.653v-7.185h-6.653V19.077h9.248v-7.385H75.445Zm20.436 0v48.902h7.186V39.968h1.264l4.058 20.626h7.186l-4.89-23.254c1.375-.931 2.539-2.395 3.493-4.39.976-2.02 1.463-4.403 1.463-7.153 0-4.635-1.02-8.14-3.06-10.513-2.04-2.395-5.212-3.592-9.514-3.592h-7.186Zm10.346 20.758c-.776.577-1.83.865-3.16.865V18.811c2.018 0 3.404.632 4.158 1.896.776 1.242 1.164 3.027 1.164 5.356 0 1.486-.166 2.772-.499 3.859-.332 1.087-.887 1.93-1.663 2.528ZM21.306 0v6.923h7.185V0h-7.185Zm11.976 0v6.923h7.185V0h-7.185Z" clip-rule="evenodd"/><path fill="#fff" d="M114.804 74.122a1.145 1.145 0 0 0-.151-.33 1.022 1.022 0 0 0-.554-.4 1.336 1.336 0 0 0-.391-.054c-.267 0-.502.067-.704.2a1.304 1.304 0 0 0-.47.58c-.113.251-.169.56-.169.924s.055.674.166.93c.111.255.267.45.47.584.203.133.442.199.718.199.25 0 .463-.044.641-.133a.957.957 0 0 0 .408-.38c.095-.164.143-.357.143-.58l.225.033h-1.348v-.832h2.188v.659c0 .46-.097.854-.291 1.184a1.987 1.987 0 0 1-.802.761c-.34.177-.73.266-1.17.266-.49 0-.921-.108-1.292-.324a2.253 2.253 0 0 1-.868-.927c-.206-.402-.309-.879-.309-1.43 0-.424.061-.802.184-1.134a2.42 2.42 0 0 1 .521-.848c.223-.231.483-.407.779-.528a2.52 2.52 0 0 1 .962-.182c.297 0 .572.044.828.13.255.086.482.207.679.363.199.157.362.343.488.56.126.214.207.45.242.71h-1.123Zm-15.529-1.691v5.23h-.955l-2.276-3.292h-.038v3.292H94.9v-5.23h.97l2.258 3.29h.046v-3.29h1.1Zm-16.429 0v5.23H81.74v-5.23h1.106ZM65.228 77.66v-5.229h1.106v2.158h2.245V72.43h1.103v5.23h-1.103V75.5h-2.245v2.16h-1.106ZM49.08 73.343v-.912h4.294v.912h-1.6v4.318H50.68v-4.318h-1.6Zm-11.526 1.704c0 .57-.108 1.055-.324 1.455-.215.4-.508.706-.879.917-.37.21-.785.314-1.246.314-.465 0-.882-.106-1.251-.317a2.254 2.254 0 0 1-.876-.916c-.215-.4-.322-.885-.322-1.453 0-.57.108-1.056.322-1.456.215-.4.506-.705.876-.914.37-.211.786-.317 1.251-.317.462 0 .877.106 1.246.317.371.21.664.514.879.914.216.4.324.885.324 1.456Zm-1.121 0c0-.37-.055-.681-.166-.935a1.264 1.264 0 0 0-.462-.577 1.243 1.243 0 0 0-.7-.197c-.267 0-.5.066-.7.197a1.273 1.273 0 0 0-.464.577c-.11.254-.164.565-.164.935 0 .37.055.68.164.934.11.254.265.446.464.577.2.131.433.197.7.197.267 0 .5-.066.7-.197.199-.13.353-.323.462-.577.11-.253.166-.565.166-.934ZM17.726 77.66v-5.229h1.105v4.318h2.242v.912h-3.347ZM5.785 74.263H4.667a1.093 1.093 0 0 0-.125-.386.98.98 0 0 0-.243-.29 1.069 1.069 0 0 0-.342-.185 1.308 1.308 0 0 0-.416-.064c-.27 0-.507.068-.708.202a1.29 1.29 0 0 0-.467.582c-.11.254-.166.562-.166.925 0 .373.055.686.166.94.112.253.27.445.47.574.2.13.433.194.697.194.148 0 .285-.02.411-.059a.986.986 0 0 0 .585-.45c.066-.108.112-.232.138-.372l1.118.005a2.085 2.085 0 0 1-.68 1.29 2.174 2.174 0 0 1-.688.413c-.266.1-.566.151-.902.151a2.47 2.47 0 0 1-1.251-.317 2.248 2.248 0 0 1-.868-.916c-.211-.4-.317-.885-.317-1.453 0-.57.107-1.056.322-1.456.214-.4.505-.705.873-.914a2.447 2.447 0 0 1 1.241-.317c.303 0 .584.043.843.128.26.085.491.21.692.373.2.162.364.36.49.595.128.235.21.504.245.807Z"/></svg>