<svg xmlns="http://www.w3.org/2000/svg" width="91" height="58" fill="none"><path fill="#fff" d="M91 42.558 55.058 7.38A5.528 5.528 0 0 0 51.19 5.8c-4.971 0-7.426 6.065-3.863 9.545l38.575 37.677C87.76 54.837 86.48 58 83.888 58h-69.94a5.766 5.766 0 0 1-4.085-1.699L1.693 48.1A5.812 5.812 0 0 1 0 43.998V15.44l35.942 35.18a5.528 5.528 0 0 0 3.867 1.58c4.971 0 7.426-6.065 3.863-9.545L5.097 4.979C3.24 3.163 4.52 0 7.112 0h69.94c1.532 0 3.001.611 4.085 1.699l8.17 8.202A5.811 5.811 0 0 1 91 14.002v28.556Z"/></svg>