<svg xmlns="http://www.w3.org/2000/svg" width="161" height="37" fill="none"><path fill="#fff" fill-rule="evenodd" d="M13.977 25.9a4.677 4.677 0 0 1-3.294-1.355 4.608 4.608 0 0 1-1.365-3.27V0H0v21.275C0 28.938 6.258 35.15 13.977 35.15h10.25V25.9h-10.25ZM41.932 9.25a8.44 8.44 0 0 0-3.21.634 8.391 8.391 0 0 0-2.72 1.804 8.321 8.321 0 0 0-1.818 2.701 8.273 8.273 0 0 0 1.818 9.073 8.391 8.391 0 0 0 2.72 1.804 8.44 8.44 0 0 0 9.14-1.804 8.295 8.295 0 0 0 2.456-5.887 8.295 8.295 0 0 0-2.456-5.887 8.418 8.418 0 0 0-5.93-2.438Zm-17.705 8.325C24.227 7.869 32.154 0 41.932 0c9.777 0 17.704 7.869 17.704 17.575S51.71 35.15 41.932 35.15s-17.705-7.869-17.705-17.575ZM142.568 9.25a8.419 8.419 0 0 0-5.93 2.438 8.293 8.293 0 0 0-2.456 5.887c0 2.208.883 4.325 2.456 5.887a8.419 8.419 0 0 0 5.93 2.438 8.419 8.419 0 0 0 5.93-2.438 8.294 8.294 0 0 0 2.457-5.887 8.294 8.294 0 0 0-2.457-5.887 8.419 8.419 0 0 0-5.93-2.438Zm-17.704 8.325C124.864 7.869 132.791 0 142.568 0c9.778 0 17.705 7.869 17.705 17.575s-7.927 17.575-17.705 17.575c-9.777 0-17.704-7.869-17.704-17.575ZM79.204 0C69.427 0 61.5 7.869 61.5 17.575S69.427 35.15 79.204 35.15h26.091c1.835 0 3.605-.277 5.269-.792L115.545 37l5.375-9.994a17.48 17.48 0 0 0 2.08-8.265v-1.166C123 7.869 115.073 0 105.295 0h-26.09Zm34.478 17.575a8.297 8.297 0 0 0-2.456-5.887 8.42 8.42 0 0 0-5.931-2.438h-26.09a8.44 8.44 0 0 0-3.21.634 8.391 8.391 0 0 0-2.72 1.804 8.321 8.321 0 0 0-1.819 2.701 8.273 8.273 0 0 0 1.819 9.073 8.391 8.391 0 0 0 2.72 1.804 8.44 8.44 0 0 0 3.21.634h26.09a8.42 8.42 0 0 0 5.908-2.415 8.298 8.298 0 0 0 2.479-5.845v-.065Z" clip-rule="evenodd"/></svg>