<svg xmlns="http://www.w3.org/2000/svg" width="62" height="40" fill="none"><g clip-path="url(#a)"><path fill="#fff" d="m7.02 20.514 31.317-8.383H10.094L7.02 20.514Zm-.42 1.148L5.284 25.25h.002l-3.19 8.9 36.498-21.053L6.6 21.662ZM1.575 35.605 0 40h13.033l26.061-26.037L1.575 35.605ZM14.449 40h10.717l14.64-25.334L14.45 40Zm11.873 0h7.69l6.66-24.83L26.321 40Zm8.726 0h6.59V15.43L35.048 40Zm7.59 0h6.59l-6.59-24.573V40Zm7.533-.35 2.15-5.997a6.48 6.48 0 0 0 .352-2.793l-9.068-15.69 6.566 24.48Zm.215-14.747c1.078-.278 2.1-.716 3.035-1.293l-8.948-8.94 5.913 10.232Zm3.876-1.867a11.005 11.005 0 0 0 2.383-2.46L45.18 13.963l9.082 9.073Zm2.922-3.304a11.05 11.05 0 0 0 .792-1.698l.55-1.5-12.848-3.439 11.506 6.637Zm1.687-4.14 1.27-3.462h-14.2l12.93 3.462Zm1.636-4.462 1.125-3.066a6.08 6.08 0 0 0 .31-1.217L45.94 11.13h14.567ZM62 5.796a6.025 6.025 0 0 0-1.754-4.034l-14.567 8.403L62 5.795Zm-2.568-4.719A5.952 5.952 0 0 0 55.992 0h-1.506l-9.308 9.3 14.254-8.223ZM53.07 0h-3.633l-4.963 8.588L53.07 0Zm-4.789 0h-2.505l-2.17 8.091L48.28 0ZM44.74 0h-2.1v7.833L44.739 0Zm-3.101 0h-2.1l2.1 7.832V0ZM38.5 0h-2.506l4.676 8.09L38.5 0Zm-3.66 0h-3.635l8.6 8.593L34.84 0Zm-5.05 0h-6.815l16.122 9.299L29.789 0ZM10.46 11.13h27.88L12.953 4.335l-2.492 6.795Zm2.842-7.737 25.29 6.77L20.973 0H18.39a5.505 5.505 0 0 0-5.086 3.393Z"/></g><defs><clipPath id="a"><path fill="#fff" d="M0 0h62v40H0z"/></clipPath></defs></svg>