<svg xmlns="http://www.w3.org/2000/svg" width="158" height="46" fill="none"><g fill="#fff" clip-path="url(#a)"><path d="M51 7.23h4.903V6.007h-3.425V0H51v7.23ZM64.359 9c.774 0 1.447-.182 1.885-.587.387-.353.622-.849.622-1.577V2.043H65.53v.546h-.02c-.317-.435-.796-.688-1.448-.688-1.325 0-2.263.991-2.263 2.538 0 1.568 1.142 2.478 2.304 2.478.662 0 1.06-.263 1.365-.607h.031v.566c0 .708-.377 1.082-1.162 1.082-.642 0-.938-.252-1.05-.576h-1.376C62.055 8.393 62.932 9 64.36 9Zm-.02-3.185c-.714 0-1.183-.516-1.183-1.396 0-.87.469-1.416 1.172-1.416.836 0 1.243.648 1.243 1.406 0 .768-.356 1.406-1.233 1.406Zm8.992-4.581h1.387V0H73.33v1.234Zm0 5.996h1.387V2.043H73.33V7.23Zm9.943.152c1.305 0 2.202-.627 2.202-1.669 0-1.213-.969-1.456-1.845-1.638-.744-.151-1.437-.192-1.437-.637 0-.374.356-.576.897-.576.59 0 .948.202 1.009.758h1.253c-.102-1.041-.866-1.719-2.242-1.719-1.193 0-2.13.536-2.13 1.658 0 1.133.917 1.386 1.855 1.568.713.142 1.376.192 1.376.688 0 .364-.347.596-.958.596-.622 0-1.05-.263-1.142-.86h-1.284c.081 1.103.927 1.831 2.446 1.831Zm8.082-.152h1.386V4.217c0-.688.377-1.133.937-1.133.51 0 .806.304.806.89V7.23h1.386V4.217c0-.688.357-1.133.938-1.133.51 0 .805.304.805.89V7.23H99V3.742c0-1.133-.622-1.841-1.723-1.841-.662 0-1.213.344-1.57.91h-.02a1.561 1.561 0 0 0-1.447-.91c-.724 0-1.233.364-1.519.84h-.03v-.698h-1.335V7.23Zm-.757 0V2.043h-1.386v2.993c0 .688-.398 1.173-1.05 1.173-.591 0-.867-.334-.867-.94V2.043H85.92V5.5c0 1.133.653 1.871 1.815 1.871.734 0 1.141-.273 1.498-.748h.03v.606H90.6ZM75.47 8.93h1.386V6.643h.02c.296.445.775.738 1.509.738 1.346 0 2.263-1.062 2.263-2.74 0-1.618-.887-2.741-2.273-2.741-.714 0-1.203.334-1.54.789h-.03v-.647H75.47v6.886Zm2.62-2.69c-.826 0-1.264-.618-1.264-1.558 0-.93.346-1.669 1.213-1.669.856 0 1.202.688 1.202 1.669 0 .98-.448 1.557-1.152 1.557Zm-7.996 1.142c1.621 0 2.732-1.193 2.732-2.74 0-1.548-1.111-2.741-2.732-2.741-1.62 0-2.731 1.193-2.731 2.74 0 1.548 1.11 2.741 2.731 2.741Zm0-1.052c-.856 0-1.325-.677-1.325-1.688 0-1.012.47-1.7 1.325-1.7.846 0 1.325.688 1.325 1.7 0 1.01-.479 1.688-1.325 1.688ZM58.82 7.382c1.62 0 2.731-1.193 2.731-2.74 0-1.548-1.11-2.741-2.731-2.741-1.62 0-2.732 1.193-2.732 2.74 0 1.548 1.111 2.741 2.732 2.741Zm0-1.052c-.856 0-1.325-.677-1.325-1.688 0-1.012.469-1.7 1.325-1.7.846 0 1.325.688 1.325 1.7 0 1.01-.48 1.688-1.325 1.688ZM52 39.974h2.36V35.16h5.059v-2.02h-5.06v-2.798h5.971v-2.001H52v11.633Zm16.72.244c2.23 0 3.613-1.415 3.76-3.189h-2.132c-.147.944-.781 1.416-1.676 1.416-1.35 0-1.985-1.058-1.985-2.636 0-1.61.683-2.636 2.017-2.636.814 0 1.383.554 1.53 1.286h2.164c-.293-1.806-1.627-3.059-3.791-3.059-2.538 0-4.165 1.92-4.165 4.41 0 2.488 1.643 4.408 4.279 4.408Zm9.855-9.892h2.213v-1.984h-2.213v1.985Zm0 9.648h2.213v-8.346h-2.213v8.346Zm14.874-8.346h-2.164v8.346h2.213V35.24c0-1.14.715-1.92 1.692-1.92.927 0 1.448.635 1.448 1.53v5.124h2.212v-5.45c0-1.822-1.155-3.124-2.88-3.124-1.138 0-1.903.472-2.472 1.367h-.05v-1.14Zm15.027 8.346h2.213V28.343h-2.213v11.633Zm18.878.244c2.587 0 4.361-1.92 4.361-4.409s-1.774-4.409-4.361-4.409c-2.587 0-4.36 1.92-4.36 4.41 0 2.488 1.773 4.408 4.36 4.408Zm0-1.692c-1.366 0-2.115-1.09-2.115-2.717s.749-2.733 2.115-2.733c1.351 0 2.115 1.106 2.115 2.733s-.764 2.717-2.115 2.717Zm18.176 1.692c2.587 0 4.36-1.92 4.36-4.409s-1.773-4.409-4.36-4.409c-2.587 0-4.361 1.92-4.361 4.41 0 2.488 1.774 4.408 4.361 4.408Zm0-1.692c-1.367 0-2.115-1.09-2.115-2.717s.748-2.733 2.115-2.733c1.35 0 2.115 1.106 2.115 2.733s-.765 2.717-2.115 2.717ZM52 23.548h4.344c1.465 0 2.587-.4 3.45-1.105 1.22-1.009 1.855-2.643 1.855-4.5 0-3.38-2.002-5.847-5.11-5.847H52v11.452Zm2.36-2.002v-7.464h1.887c2.001 0 3.01 1.586 3.01 3.86 0 2.275-.862 3.604-3.075 3.604h-1.823Zm16.972 4.693h2.213v-3.62h.033c.472.705 1.236 1.17 2.408 1.17 2.148 0 3.612-1.682 3.612-4.341 0-2.563-1.416-4.34-3.628-4.34-1.14 0-1.92.528-2.457 1.249h-.05v-1.025h-2.13v10.907Zm4.182-4.26c-1.318 0-2.018-.977-2.018-2.467 0-1.474.554-2.643 1.937-2.643 1.366 0 1.92 1.09 1.92 2.643 0 1.554-.716 2.467-1.839 2.467Zm15.475-6.647h-2.132v8.216h2.213v-4.004c0-1.73 1.042-2.483 2.49-2.338h.049v-1.907c-.13-.048-.277-.064-.521-.064-.976 0-1.546.48-2.05 1.41h-.049v-1.313Zm8.784 8.216h2.212v-4.773c0-1.089.602-1.794 1.497-1.794.814 0 1.286.48 1.286 1.41v5.157h2.213v-4.773c0-1.089.569-1.794 1.497-1.794.813 0 1.285.48 1.285 1.41v5.157h2.213v-5.526c0-1.794-.993-2.915-2.75-2.915-1.058 0-1.936.545-2.506 1.442h-.032c-.407-.865-1.253-1.442-2.311-1.442-1.155 0-1.969.577-2.424 1.33h-.049V15.33h-2.131v8.217Zm24.313-8.216h-2.164v8.216h2.212v-4.66c0-1.122.716-1.89 1.693-1.89.927 0 1.448.624 1.448 1.505v5.045h2.213v-5.365c0-1.794-1.156-3.076-2.88-3.076-1.139 0-1.904.465-2.474 1.346h-.048v-1.121Zm17.541 8.44c1.367 0 2.446-.496 3.238-1.49.792-.992 1.187-2.183 1.187-3.57 0-1.111-.33-1.998-.992-2.66-.662-.662-1.508-.993-2.538-.993-1.335 0-2.408.502-3.222 1.506-.814.993-1.22 2.189-1.22 3.588 0 1.132.33 2.018.992 2.659.673.64 1.524.96 2.555.96Zm-2.246-3.635c0-1.1.272-2.045.814-2.835.553-.79 1.318-1.186 2.294-1.186.738 0 1.296.246 1.676.737.38.491.569 1.11.569 1.858 0 1.121-.271 2.066-.813 2.835-.543.769-1.291 1.153-2.246 1.153-.737 0-1.307-.235-1.708-.704-.39-.48-.586-1.1-.586-1.858Zm7.554-3.828h1.139l-1.368 6.997-.047.242h1.285l1.368-6.997.048-.242h1.546l.211-1.042h-1.546l.244-1.265c.065-.32.174-.55.326-.689.152-.138.428-.208.83-.208.184 0 .352.005.504.016l.212-1.089a8.068 8.068 0 0 0-.716-.032c-.716 0-1.264.15-1.644.448-.379.3-.64.796-.781 1.49l-.26 1.33h-1.139l-.212 1.04Zm-16.866.464h1.155v4.821c0 1.554 1.188 1.97 2.262 1.97.878 0 1.383-.032 1.383-.032v-1.601s-.374.016-.651.016c-.488 0-.83-.209-.83-.817v-4.357h1.432v-1.441h-1.432v-2.563h-2.164v2.563h-1.155v1.441Zm-12.941 7.015c2.148 0 3.466-1.233 3.775-2.69h-2.18c-.244.624-.749 1.009-1.611 1.009-1.253 0-1.969-.785-2.132-2.05h6.053c0-2.932-1.432-4.95-4.117-4.95-2.44 0-4.116 1.89-4.116 4.325 0 2.45 1.562 4.357 4.328 4.357Zm-.179-6.999c1.009 0 1.709.72 1.774 1.762h-3.71c.195-1.073.764-1.762 1.936-1.762Zm-22.931-.016h1.155v4.821c0 1.554 1.188 1.97 2.261 1.97.88 0 1.383-.032 1.383-.032v-1.601s-.374.016-.65.016c-.488 0-.83-.209-.83-.817v-4.357h1.432v-1.441h-1.432v-2.563h-2.164v2.563h-1.155v1.441Zm-8.27 6.775h2.131v-.08c-.195-.144-.293-.512-.293-1.137v-4.18c0-1.922-1.008-3.028-3.514-3.028-2.44 0-3.531 1.266-3.596 2.707h1.969c.065-.785.57-1.153 1.61-1.153.928 0 1.4.384 1.4.977 0 .625-.635.737-2.018.929-1.855.256-3.352.833-3.352 2.643 0 1.634 1.205 2.515 2.913 2.515 1.432 0 2.034-.481 2.457-1.106h.032c.05.369.13.753.26.913Zm-2.213-1.33c-.781 0-1.302-.271-1.302-1.04s.57-1.025 1.725-1.282c.553-.128 1.155-.256 1.546-.48v1.233c0 .801-.7 1.57-1.97 1.57Zm-16.996 1.57c2.147 0 3.465-1.233 3.775-2.69h-2.18c-.245.624-.75 1.009-1.612 1.009-1.252 0-1.968-.785-2.131-2.05h6.053c0-2.932-1.432-4.95-4.117-4.95-2.44 0-4.116 1.89-4.116 4.325 0 2.45 1.562 4.357 4.328 4.357Zm-.18-6.999c1.01 0 1.71.72 1.774 1.762h-3.71c.196-1.073.765-1.762 1.937-1.762Zm87.808 23.43c2.083 0 3.514-1.01 3.514-2.685 0-1.953-1.545-2.343-2.944-2.636-1.188-.244-2.295-.309-2.295-1.025 0-.602.57-.927 1.432-.927.944 0 1.513.325 1.611 1.22h2.001c-.163-1.676-1.383-2.766-3.579-2.766-1.904 0-3.401.862-3.401 2.668 0 1.823 1.465 2.23 2.961 2.522 1.139.228 2.197.31 2.197 1.106 0 .586-.553.96-1.529.96-.993 0-1.676-.423-1.823-1.383h-2.05c.13 1.774 1.481 2.945 3.905 2.945Zm-17.882 2.602c1.236 0 2.31-.292 3.01-.943.618-.57.992-1.367.992-2.538v-7.712h-2.131v.879h-.033c-.504-.7-1.269-1.107-2.31-1.107-2.115 0-3.612 1.595-3.612 4.084 0 2.522 1.822 3.986 3.677 3.986 1.057 0 1.692-.423 2.18-.976h.049v.91c0 1.14-.602 1.742-1.855 1.742-1.025 0-1.497-.407-1.676-.928h-2.196c.228 1.627 1.627 2.603 3.905 2.603Zm-.033-5.124c-1.139 0-1.887-.83-1.887-2.246 0-1.399.748-2.278 1.871-2.278 1.334 0 1.985 1.042 1.985 2.262 0 1.236-.57 2.261-1.969 2.261Zm-21.466 2.277h7.826v-1.968h-5.467v-9.664h-2.359v11.633Zm-9.452 0h2.131v-.081c-.195-.147-.293-.52-.293-1.155V34.49c0-1.952-1.008-3.075-3.514-3.075-2.44 0-3.531 1.286-3.596 2.75h1.969c.065-.797.569-1.171 1.611-1.171.927 0 1.399.39 1.399.992 0 .635-.635.748-2.018.944-1.854.26-3.351.846-3.351 2.684 0 1.66 1.204 2.555 2.912 2.555 1.432 0 2.034-.489 2.457-1.123h.032c.049.374.131.765.261.927Zm-2.213-1.35c-.781 0-1.302-.277-1.302-1.058 0-.78.57-1.04 1.725-1.301.553-.13 1.155-.26 1.546-.488v1.252c0 .814-.7 1.595-1.969 1.595Zm-17.09 1.594c2.587 0 4.36-1.92 4.36-4.409s-1.773-4.409-4.36-4.409c-2.586 0-4.36 1.92-4.36 4.41 0 2.488 1.774 4.408 4.36 4.408Zm0-1.692c-1.366 0-2.115-1.09-2.115-2.717s.749-2.733 2.116-2.733c1.35 0 2.115 1.106 2.115 2.733s-.765 2.717-2.115 2.717Zm-13.21-5.434h1.155v4.897c0 1.579 1.187 2.002 2.261 2.002.879 0 1.383-.033 1.383-.033v-1.627s-.374.016-.65.016c-.489 0-.83-.211-.83-.83v-4.425h1.431v-1.464H76.14v-2.603h-2.164v2.603H72.82v1.464Zm-11.475 6.883h2.212v-8.347h-2.212v8.346Zm0-9.649h2.212v-1.984h-2.212v1.985ZM15 29.031v7H4v-36H0v40h15v5h12.5c6.904 0 12.5-5.596 12.5-12.5 0-2.5-.736-4.826-2-6.78v-15.72H22v4h13v6H22v9h4v-5h1.5a8.5 8.5 0 0 1 0 17H19v-8h3v-4h-7v-25h23v-4H11v29h4Z"/></g><defs><clipPath id="a"><path fill="#fff" d="M0 0h158v46H0z"/></clipPath></defs></svg>