<svg xmlns="http://www.w3.org/2000/svg" width="423" height="113" fill="none"><g fill="#fff" clip-path="url(#a)"><path fill-rule="evenodd" d="m.879 12.439 7.395-3.22a108 108 0 0 1 86.21 0l7.395 3.22V62.18c0 27.89-22.61 50.501-50.5 50.501s-50.5-22.61-50.5-50.5V12.438Zm16 10.52v21.768a33.987 33.987 0 0 0 16.041-9.004 34 34 0 0 0 9.59-19.05 91.963 91.963 0 0 0-25.63 6.287Zm.003 39.678a34 34 0 0 1 25.997 32.99c-14.803-3.751-25.791-17.07-25.997-32.99Zm33.997 5.915a49.993 49.993 0 0 0-14.87-14.87 49.993 49.993 0 0 0 14.87-14.871 49.993 49.993 0 0 0 14.87 14.87 49.993 49.993 0 0 0-14.87 14.871Zm8 27.312c15.376-3.409 26.893-17.077 27-33.454a34 34 0 0 0-27 33.272v.182Zm20.989-52.77a33.999 33.999 0 0 0 6.01 1.86V22.958a91.962 91.962 0 0 0-26.644-6.378 33.997 33.997 0 0 0 20.634 26.512Zm142.159 59.664c-2.4 0-4.56-.576-6.48-1.728-1.92-1.184-3.44-2.784-4.56-4.8-1.088-2.048-1.632-4.352-1.632-6.912 0-2.592.544-4.896 1.632-6.912 1.12-2.016 2.624-3.6 4.512-4.752 1.92-1.184 4.096-1.776 6.528-1.776 2.208 0 4.176.48 5.904 1.44 1.415.786 2.583 1.797 3.504 3.033V65.846h3.6v36.336h-3.6v-4.193c-.862 1.363-2.014 2.457-3.456 3.281-1.76.992-3.744 1.488-5.952 1.488Zm.192-3.6c1.728 0 3.28-.432 4.656-1.296a9.177 9.177 0 0 0 3.312-3.504c.832-1.504 1.248-3.184 1.248-5.04 0-1.856-.416-3.52-1.248-4.992-.8-1.504-1.904-2.688-3.312-3.552-1.376-.864-2.928-1.296-4.656-1.296-1.696 0-3.232.432-4.608 1.296-1.376.864-2.464 2.032-3.264 3.504-.768 1.472-1.152 3.152-1.152 5.04 0 1.856.384 3.536 1.152 5.04.8 1.472 1.872 2.64 3.216 3.504 1.376.864 2.928 1.296 4.656 1.296Zm23.952 1.872c1.952 1.152 4.128 1.728 6.528 1.728 1.76 0 3.36-.288 4.8-.864 1.472-.608 2.736-1.392 3.792-2.352 1.056-.992 1.84-2.064 2.352-3.216l-3.072-1.632a10.797 10.797 0 0 1-3.12 3.36c-1.28.896-2.864 1.344-4.752 1.344a9.063 9.063 0 0 1-4.608-1.248c-1.408-.832-2.528-2-3.36-3.504-.646-1.241-.979-2.65-.999-4.224h20.247c.064-.416.112-.816.144-1.2a12.53 12.53 0 0 0-.768-5.568 12.27 12.27 0 0 0-2.352-3.936 10.826 10.826 0 0 0-3.744-2.784c-1.44-.704-3.088-1.056-4.944-1.056-2.336 0-4.448.576-6.336 1.728-1.856 1.152-3.328 2.736-4.416 4.752-1.088 1.984-1.632 4.272-1.632 6.864 0 2.592.56 4.912 1.68 6.96 1.12 2.048 2.64 3.664 4.56 4.848Zm-2.382-13.968c.119-1.135.417-2.16.894-3.072.768-1.504 1.824-2.672 3.168-3.504a8.474 8.474 0 0 1 4.464-1.248c1.6 0 3.04.416 4.32 1.248 1.28.8 2.256 1.904 2.928 3.312.506.989.755 2.077.749 3.264h-16.523Z" clip-rule="evenodd"/><path d="M269.078 76.454h3.6v3.134a7.798 7.798 0 0 1 2.544-2.462 8.895 8.895 0 0 1 4.608-1.248c1.984 0 3.776.56 5.376 1.68 1.237.865 2.197 1.932 2.879 3.2.659-1.395 1.603-2.493 2.833-3.296a9.387 9.387 0 0 1 5.28-1.584c1.728 0 3.312.416 4.752 1.248a9.313 9.313 0 0 1 3.504 3.456c.896 1.44 1.344 3.072 1.344 4.896v16.704h-3.6V86.87c0-1.568-.288-2.896-.864-3.984-.544-1.088-1.296-1.92-2.256-2.496-.96-.608-2.064-.912-3.312-.912-1.216 0-2.32.304-3.312.912-.992.576-1.776 1.424-2.352 2.544-.576 1.088-.864 2.4-.864 3.936v15.312h-3.6V86.87c0-1.568-.288-2.896-.864-3.984-.544-1.088-1.296-1.92-2.256-2.496-.96-.608-2.064-.912-3.312-.912-1.248 0-2.368.304-3.36.912-.96.576-1.728 1.424-2.304 2.544-.576 1.088-.864 2.4-.864 3.936v15.312h-3.6V76.454Zm42.213 36.288a9.11 9.11 0 0 1-1.584-.144 6.75 6.75 0 0 1-1.536-.384v-3.36c.32.032.72.08 1.2.144a8.318 8.318 0 0 0 1.536.144c1.568 0 2.768-.336 3.6-1.008.832-.64 1.648-1.888 2.448-3.744l.93-2.189-10.29-25.747h3.888l8.423 21.237 8.377-21.237h3.984l-11.76 28.992a17.566 17.566 0 0 1-1.968 3.552 8.729 8.729 0 0 1-2.928 2.688c-1.184.704-2.624 1.056-4.32 1.056Z"/><path fill-rule="evenodd" d="M187.454 101.846c1.28.608 2.736.912 4.369.912 1.504 0 2.88-.224 4.127-.672 1.28-.48 2.384-1.104 3.312-1.872a8.384 8.384 0 0 0 1.584-1.715v3.683h3.601V84.518c0-1.696-.416-3.184-1.249-4.464-.8-1.312-1.936-2.336-3.407-3.072-1.441-.736-3.104-1.104-4.993-1.104-1.439 0-2.832.272-4.176.816a12.263 12.263 0 0 0-3.6 2.112c-1.023.896-1.776 1.888-2.256 2.976l3.265 1.776c.575-1.248 1.455-2.256 2.64-3.024 1.183-.8 2.559-1.2 4.127-1.2 1.792 0 3.249.48 4.369 1.44 1.119.96 1.679 2.208 1.679 3.744v1.328l-9.312 1.552c-1.888.32-3.44.864-4.655 1.632-1.217.768-2.113 1.712-2.689 2.832-.575 1.088-.863 2.304-.863 3.648 0 1.408.367 2.656 1.103 3.744.737 1.088 1.744 1.952 3.024 2.592Zm13.392-12.736v1.936c0 1.568-.367 2.992-1.104 4.272-.736 1.28-1.76 2.304-3.071 3.072-1.312.736-2.848 1.104-4.609 1.104-1.44 0-2.624-.4-3.552-1.2-.895-.8-1.343-1.776-1.343-2.928 0-1.184.4-2.208 1.199-3.072.832-.864 2.176-1.456 4.032-1.776l8.448-1.408Z" clip-rule="evenodd"/><path d="M169.27 102.758c-2.528 0-4.752-.592-6.672-1.776-1.92-1.184-3.424-2.784-4.512-4.8-1.088-2.048-1.632-4.352-1.632-6.912 0-2.56.544-4.848 1.632-6.864 1.088-2.016 2.592-3.6 4.512-4.752 1.92-1.184 4.144-1.776 6.672-1.776 1.6 0 3.104.288 4.512.864a12.57 12.57 0 0 1 3.744 2.352c1.088.96 1.904 2.08 2.448 3.36l-3.264 1.68c-.64-1.376-1.616-2.496-2.928-3.36-1.312-.864-2.816-1.296-4.512-1.296-1.696 0-3.232.432-4.608 1.296-1.344.832-2.416 2-3.216 3.504-.768 1.472-1.152 3.152-1.152 5.04 0 1.856.384 3.536 1.152 5.04.8 1.472 1.872 2.64 3.216 3.504 1.376.864 2.912 1.296 4.608 1.296 1.696 0 3.184-.432 4.464-1.296a8.216 8.216 0 0 0 2.976-3.456l3.264 1.776c-.544 1.248-1.36 2.368-2.448 3.36a12.564 12.564 0 0 1-3.744 2.352c-1.408.576-2.912.864-4.512.864Z"/><path fill-rule="evenodd" d="m138.463 66.422-13.056 35.76h4.032l3.12-8.736h15.984l3.072 8.736h4.032l-13.056-35.76h-4.128Zm8.736 23.424h-13.392l6.718-18.917 6.674 18.917Z" clip-rule="evenodd"/><path d="M128.66 8.499v42.683h26.928v-7.735H137.54V8.5h-8.88Zm135.614 42.682h8.594V19.9h-8.594v31.282Zm0-42.682v8.594h8.594V8.499h-8.594Z"/><path fill-rule="evenodd" d="M277.438 62.64V19.9h8.021v3.245c.927-1.09 2.072-1.962 3.437-2.615 1.795-.878 3.839-1.318 6.131-1.318 2.979 0 5.671.726 8.078 2.178 2.406 1.45 4.316 3.418 5.729 5.9 1.413 2.445 2.12 5.195 2.12 8.25 0 3.018-.707 5.768-2.12 8.25-1.375 2.483-3.267 4.45-5.673 5.902-2.406 1.451-5.136 2.177-8.192 2.177-2.139 0-4.126-.382-5.959-1.146a10.908 10.908 0 0 1-2.978-1.944V62.64h-8.594Zm16.5-18.505c1.603 0 3.017-.363 4.24-1.089 1.222-.726 2.177-1.738 2.864-3.036.688-1.3 1.031-2.789 1.031-4.47 0-1.68-.343-3.15-1.031-4.41-.687-1.3-1.642-2.312-2.864-3.037-1.223-.764-2.637-1.146-4.24-1.146-1.528 0-2.903.363-4.126 1.088-1.184.726-2.119 1.738-2.806 3.037-.65 1.299-.974 2.788-.974 4.469 0 1.68.324 3.17.974 4.469.687 1.298 1.622 2.31 2.806 3.036 1.223.726 2.598 1.089 4.126 1.089Z" clip-rule="evenodd"/><path d="M317.534 49.463c2.559 1.604 5.557 2.406 8.995 2.406 2.444 0 4.564-.401 6.359-1.203 1.795-.84 3.19-1.986 4.183-3.438 1.031-1.451 1.547-3.15 1.547-5.099 0-2.253-.688-4.144-2.063-5.672-1.375-1.566-3.361-2.73-5.958-3.495l-4.985-1.49a12.291 12.291 0 0 1-1.948-.744c-.496-.267-.859-.573-1.088-.917a2.023 2.023 0 0 1-.344-1.145c0-.803.305-1.433.917-1.891.649-.458 1.527-.688 2.635-.688 1.528 0 2.884.401 4.068 1.204 1.222.764 2.062 1.795 2.521 3.093l6.359-2.979c-.955-2.597-2.597-4.602-4.927-6.015-2.292-1.452-4.965-2.178-8.021-2.178-2.33 0-4.392.42-6.188 1.26-1.795.803-3.189 1.93-4.182 3.381-.993 1.451-1.489 3.151-1.489 5.1 0 2.214.687 4.143 2.062 5.786 1.375 1.604 3.342 2.769 5.901 3.495l5.328 1.489c.688.191 1.261.42 1.719.688.458.267.802.572 1.031.916.23.306.344.688.344 1.146 0 .879-.325 1.566-.974 2.063-.649.496-1.585.744-2.807.744a7.858 7.858 0 0 1-4.584-1.432c-1.375-.955-2.463-2.273-3.265-3.953l-6.302 2.98c.916 2.75 2.635 4.945 5.156 6.588ZM374.613 19.9h8.021v3.779a7.076 7.076 0 0 1 2.464-2.748c1.757-1.146 3.857-1.719 6.302-1.719 2.597 0 4.87.669 6.818 2.006 1.158.757 2.063 1.67 2.715 2.74.828-1.21 1.814-2.18 2.957-2.912 1.909-1.223 4.144-1.834 6.703-1.834 2.253 0 4.24.497 5.958 1.49 1.757.993 3.132 2.387 4.125 4.182.993 1.757 1.49 3.82 1.49 6.188v20.11h-8.594V32.904c0-1.222-.229-2.272-.687-3.15a4.816 4.816 0 0 0-1.834-2.063c-.802-.497-1.776-.745-2.922-.745-1.107 0-2.081.248-2.921.745-.803.496-1.433 1.184-1.891 2.062-.42.879-.63 1.929-.63 3.151V51.18h-8.594V32.906c0-1.222-.229-2.272-.688-3.15a4.808 4.808 0 0 0-1.833-2.063c-.802-.497-1.776-.745-2.922-.745-1.108 0-2.082.248-2.922.745-.802.496-1.432 1.184-1.891 2.062-.42.879-.63 1.929-.63 3.151v18.276h-8.594V19.9Zm-21.349 31.969c-2.521 0-4.679-.535-6.474-1.604-1.757-1.108-3.094-2.636-4.01-4.584-.917-1.947-1.375-4.22-1.375-6.817V19.9h8.594v18.276c0 1.184.229 2.234.687 3.151a5.353 5.353 0 0 0 2.063 2.063c.878.496 1.871.745 2.979.745 1.146 0 2.139-.249 2.979-.745a4.962 4.962 0 0 0 2.005-2.063c.497-.916.745-1.967.745-3.15V19.9h8.594v31.282h-8.021v-3.807c-.729 1.373-1.76 2.432-3.094 3.176-1.604.879-3.495 1.318-5.672 1.318Z"/><path fill-rule="evenodd" d="M244.201 51.869c-3.094 0-5.921-.707-8.48-2.12a16.652 16.652 0 0 1-6.073-5.786c-1.489-2.483-2.234-5.29-2.234-8.422 0-3.17.745-5.978 2.234-8.422a16.652 16.652 0 0 1 6.073-5.787c2.559-1.413 5.386-2.12 8.48-2.12 3.093 0 5.901.707 8.422 2.12 2.52 1.413 4.526 3.342 6.015 5.787 1.528 2.444 2.292 5.252 2.292 8.422 0 3.132-.764 5.939-2.292 8.422-1.489 2.444-3.495 4.373-6.015 5.786-2.521 1.413-5.329 2.12-8.422 2.12Zm0-7.734c1.566 0 2.922-.363 4.067-1.089 1.184-.726 2.101-1.738 2.75-3.036.688-1.3 1.032-2.789 1.032-4.47 0-1.68-.344-3.15-1.032-4.41-.649-1.3-1.566-2.312-2.75-3.037-1.145-.764-2.501-1.146-4.067-1.146-1.566 0-2.941.382-4.125 1.146-1.185.725-2.12 1.738-2.808 3.036-.649 1.26-.974 2.731-.974 4.412 0 1.68.325 3.17.974 4.469.688 1.298 1.623 2.31 2.808 3.036 1.184.726 2.559 1.089 4.125 1.089Zm-42.307 18.448c2.062.802 4.297 1.203 6.703 1.203 3.017 0 5.672-.611 7.964-1.834 2.33-1.222 4.163-2.921 5.5-5.099 1.336-2.138 2.005-4.583 2.005-7.333V19.9h-8.021v3.285c-.944-1.107-2.013-1.973-3.208-2.598-1.681-.916-3.648-1.375-5.902-1.375-2.864 0-5.423.65-7.677 1.948-2.253 1.299-4.029 3.094-5.328 5.386-1.299 2.253-1.948 4.85-1.948 7.791 0 2.942.649 5.577 1.948 7.907a14.447 14.447 0 0 0 5.386 5.443c2.291 1.298 4.888 1.948 7.791 1.948 2.254 0 4.221-.42 5.901-1.26a9.986 9.986 0 0 0 2.464-1.816v2.961c0 1.337-.286 2.502-.859 3.495a5.125 5.125 0 0 1-2.349 2.234c-1.032.535-2.254.802-3.667.802-1.795 0-3.342-.42-4.641-1.26-1.298-.84-2.158-1.986-2.578-3.438l-7.964 2.808c.65 1.948 1.7 3.628 3.152 5.041 1.489 1.452 3.265 2.579 5.328 3.38Zm10.198-21.657c-1.07.611-2.33.917-3.782.917-1.451 0-2.75-.306-3.895-.917a7.261 7.261 0 0 1-2.636-2.635c-.611-1.108-.917-2.387-.917-3.839 0-1.49.306-2.788.917-3.896.649-1.146 1.528-2.024 2.636-2.635 1.145-.65 2.444-.974 3.895-.974 1.414 0 2.655.325 3.724.974 1.07.61 1.91 1.49 2.521 2.635.612 1.108.917 2.406.917 3.896 0 1.49-.305 2.788-.917 3.896a6.171 6.171 0 0 1-2.463 2.578Zm-38.923 10.943c-3.094 0-5.92-.707-8.479-2.12a16.652 16.652 0 0 1-6.073-5.786c-1.49-2.483-2.234-5.29-2.234-8.422 0-3.17.744-5.978 2.234-8.422a16.652 16.652 0 0 1 6.073-5.787c2.559-1.413 5.385-2.12 8.479-2.12 3.094 0 5.901.707 8.422 2.12 2.521 1.413 4.526 3.342 6.016 5.787 1.528 2.444 2.292 5.252 2.292 8.422 0 3.132-.764 5.939-2.292 8.422-1.49 2.444-3.495 4.373-6.016 5.786-2.521 1.413-5.328 2.12-8.422 2.12Zm0-7.734c1.566 0 2.922-.363 4.068-1.089 1.184-.726 2.101-1.738 2.75-3.036.688-1.3 1.031-2.789 1.031-4.47 0-1.68-.343-3.15-1.031-4.41-.649-1.3-1.566-2.312-2.75-3.037-1.146-.764-2.502-1.146-4.068-1.146-1.566 0-2.941.382-4.125 1.146-1.184.725-2.12 1.738-2.807 3.036-.649 1.26-.974 2.731-.974 4.412 0 1.68.325 3.17.974 4.469.687 1.298 1.623 2.31 2.807 3.036s2.559 1.089 4.125 1.089Z" clip-rule="evenodd"/></g><defs><clipPath id="a"><path fill="#fff" d="M0 0h423v113H0z"/></clipPath></defs></svg>